<svg xmlns="http://www.w3.org/2000/svg" xmlns:xlink="http://www.w3.org/1999/xlink" version="1.0" x="0px" y="0px" viewBox="0 0 24 24" enable-background="new 0 0 24 24" xml:space="preserve"><path d="M20.7,12c-0.5,0-0.8-0.6-1-0.9c-0.4-0.7-0.9-1.8-1.9-2.4c-0.4,0.6-0.5,0.9-0.7,1.9c-0.6-3.1,0.5-5.2,0.9-6.2  c-1.5,0-3,1.2-3.6,2.8C14.2,7.1,13.3,7,13.1,7h-2.9C7,7,3.7,9.6,3.7,13.7c0,1.7,0.8,3.3,2.2,4.5c0.2,0.2,0.6,0.6,0.5,1.3  c0,0.1,0,0.1,0,0.2c-0.2,0.9,0.4,1.8,1.3,2l2,0.4c0,0,0.1-0.5,0.2-1.1c0.1-0.6,0.6-0.7,1.1-0.6c0.3,0,0.7,0.1,1.1,0.1  c0.4,0,0.9,0,1.3-0.1c0.2,0,0.7,0,0.8,0.5c0.1,0.5,0.3,1.3,0.3,1.3l2-0.4c0.9-0.2,1.5-1.1,1.3-2c0-0.1,0-0.2,0-0.2  c-0.1-0.4,0.2-0.8,0.4-0.9c0.5-0.5,1-1,1.2-1.5c0.1-0.3,0.6-0.8,1.3-0.8H21c0.6,0,1-0.4,1-1v-2.4c0-0.6-0.4-0.8-1-0.8  C20.9,12,20.7,12,20.7,12z M18,14c-0.6,0-1-0.4-1-1s0.4-1,1-1s1,0.4,1,1S18.6,14,18,14z"></path><path fill="none" stroke="#000000" stroke-width="2" stroke-linecap="round" stroke-linejoin="round" stroke-miterlimit="10" d="  M6,14c-1,0-3-0.3-3-3"></path><path d="M12.5,6C12.8,5.6,13,5.1,13,4.5C13,3.1,11.9,2,10.5,2S8,3.1,8,4.5C8,5.1,8.2,5.6,8.5,6H12.5z"></path></svg>