<svg xmlns="http://www.w3.org/2000/svg" xmlns:xlink="http://www.w3.org/1999/xlink" version="1.1" x="0px" y="0px" viewBox="0 0 100 125" enable-background="new 0 0 100 100" xml:space="preserve"><path d="M87.51,63.55v-0.726c0-15.917-16.332-28.866-36.408-28.866c-20.077,0-36.409,12.949-36.409,28.866v0.726h-4.239  c0,13.295-12.871,35.044,40.648,35.044c53.518,0,40.646-21.749,40.646-35.044H87.51z"/><path d="M42.477,21.672l1.173,2.032c1.304-0.148,2.62-0.255,3.947-0.314l2.131-3.692l-0.958-1.659  c0.364-0.448,0.682-0.925,0.962-1.421c-0.355-0.689-0.642-1.419-0.847-2.186c-0.711-2.654-0.408-5.42,0.849-7.843  c-0.016-0.027-0.028-0.055-0.043-0.082c-2.815-4.877-9.051-6.548-13.928-3.732c-4.877,2.815-6.547,9.052-3.732,13.928  C34.206,20.471,38.422,22.322,42.477,21.672z"/><path d="M82.92,35.532c-7.069-5.619-16.035-9.145-25.716-10.191l1.568-2.716c4.054,0.65,8.271-1.201,10.446-4.969  c2.815-4.876,1.145-11.113-3.731-13.928C60.61,0.912,54.374,2.582,51.559,7.459c-2.176,3.768-1.67,8.346,0.92,11.533l-3.499,6.06  c-11.19,0.414-21.667,4.098-29.698,10.48c-8.78,6.979-13.616,16.333-13.616,26.339h7.267c0-16.317,17.122-29.593,38.168-29.593  c21.045,0,38.168,13.275,38.168,29.593h7.267C96.536,51.864,91.7,42.511,82.92,35.532z"/><text x="0" y="115" fill="#000000" font-size="5px" font-weight="bold" font-family="'Helvetica Neue', Helvetica, Arial-Unicode, Arial, Sans-serif">Created by Dima Lagunov</text><text x="0" y="120" fill="#000000" font-size="5px" font-weight="bold" font-family="'Helvetica Neue', Helvetica, Arial-Unicode, Arial, Sans-serif">from the Noun Project</text></svg>