<svg xmlns="http://www.w3.org/2000/svg" data-name="Layer 1" viewBox="0 0 100 100" x="0px" y="0px"><title>Artboard 73</title><rect style="fill:#FFFFFF;" x="24.89" y="12.03" width="13.12" height="24.81"/><path style="fill:#FFFFFF;" d="M84.36,91.53a5,5,0,0,0,5-5V24.1a5,5,0,0,0-1.46-3.54l-7.07-7.07A5,5,0,0,0,77.28,12h-4V39.84a3,3,0,0,1-3,3H21.89a3,3,0,0,1-3-3V12h-4a5,5,0,0,0-5,5v69.5a5,5,0,0,0,5,5ZM18.87,55a3.22,3.22,0,0,1,3.4-3H76.94a3.22,3.22,0,0,1,3.4,3V84.11H18.87Z"/><rect style="fill:#FFFFFF;" x="44.02" y="12.03" width="23.3" height="24.81"/><path style="fill:#FFFFFF;" d="M71.14,71.95H28.07a3,3,0,1,0,0,6H71.14a3,3,0,0,0,0-6Z"/><path style="fill:#FFFFFF;" d="M71.14,59H28.07a3,3,0,1,0,0,6H71.14a3,3,0,0,0,0-6Z"/>
</svg>
