<svg xmlns="http://www.w3.org/2000/svg" xmlns:xlink="http://www.w3.org/1999/xlink" version="1.1" x="0px" y="0px" viewBox="0 0 100 125" enable-background="new 0 0 100 100" xml:space="preserve"><g><g><path d="M66.062,25.014H33.938c-0.986,0-1.784,0.799-1.784,1.785s0.798,1.785,1.784,1.785h32.125c0.986,0,1.784-0.799,1.784-1.785    S67.049,25.014,66.062,25.014z"/><rect x="33.938" y="41.076" width="19.632" height="3.57"/><rect x="33.938" y="48.215" width="19.632" height="3.57"/><rect x="33.938" y="55.354" width="19.632" height="3.57"/><path d="M66.062,71.416H33.938c-0.986,0-1.784,0.799-1.784,1.785s0.798,1.785,1.784,1.785h32.125c0.986,0,1.784-0.799,1.784-1.785    S67.049,71.416,66.062,71.416z"/><rect x="33.938" y="62.492" width="19.632" height="3.57"/><rect x="33.938" y="33.938" width="19.632" height="3.57"/><path d="M76.771,8.195l-5.825,3.879l-4.31-3.687l-4.165,3.569l-4.168-3.569l-4.165,3.567l-4.164-3.569l-4.154,3.569l-4.16-3.569    l-4.162,3.569l-4.16-3.569l-4.3,3.687l-5.811-3.869l0.003,83.602l5.825-3.879l4.31,3.687l4.166-3.569l4.167,3.569l4.165-3.567    l4.164,3.569l4.155-3.569l4.16,3.569l4.161-3.569l4.161,3.569l4.299-3.687l5.811,3.869L76.771,8.195z M70.691,83.459l-4.027,3.453    l-4.161-3.569l-4.161,3.569l-4.164-3.569l-4.155,3.569l-4.16-3.569l-4.165,3.571l-4.167-3.57l-4.169,3.57l-4.038-3.453    l-2.524,1.679l-0.003-70.272l2.513,1.674l4.028-3.453l4.16,3.569l4.162-3.569l4.163,3.569l4.155-3.569l4.16,3.569l4.165-3.571    l4.168,3.57l4.169-3.57l4.038,3.453l2.523-1.679l0.003,70.272L70.691,83.459z"/></g></g><text x="0" y="115" fill="#000000" font-size="5px" font-weight="bold" font-family="'Helvetica Neue', Helvetica, Arial-Unicode, Arial, Sans-serif">Created by naim</text><text x="0" y="120" fill="#000000" font-size="5px" font-weight="bold" font-family="'Helvetica Neue', Helvetica, Arial-Unicode, Arial, Sans-serif">from the Noun Project</text></svg>